<svg width="21" height="26" viewBox="0 0 21 26" fill="none" xmlns="http://www.w3.org/2000/svg">
<path fill-rule="evenodd" clip-rule="evenodd" d="M7.5 22.575C7.5 23.9557 8.61929 25.075 10 25.075C11.3807 25.075 12.5 23.9557 12.5 22.575H7.5ZM0 21.325H20V18.825L17.5 17.575V10.7087C17.5 10.4737 17.495 10.2225 17.4812 9.95873C16.6533 10.1238 15.8006 10.1208 14.9738 9.94998C14.9913 10.1825 15 10.4362 15 10.7V18.825H5V10.7C4.93392 9.24545 5.31568 7.80567 6.09375 6.57497C7.00376 5.34704 8.47482 4.66494 10 4.76372H10.07C10.0234 4.45298 9.99996 4.13919 10 3.82497C9.9959 2.47199 10.4349 1.15489 11.25 0.0749699H7.5V2.79997C4.27625 3.56622 2.5 6.37248 2.5 10.7V17.575L0 18.825V21.325Z" fill="#333333"/>
<path d="M16.737 7.49991C15.9817 7.50082 15.2439 7.27289 14.6207 6.84616C13.148 5.83938 12.5883 3.93441 13.2826 2.29103C13.9768 0.647658 15.7327 -0.279118 17.4812 0.0749512C19.2298 0.42902 20.4868 1.9659 20.487 3.7499C20.487 5.82097 18.8081 7.49991 16.737 7.49991Z" fill="#333333"/>
<path d="M16.7504 7.57488C15.9951 7.57579 15.2573 7.34786 14.6341 6.92112C13.1613 5.91435 12.6017 4.00938 13.296 2.366C13.9902 0.722628 15.7461 -0.204148 17.4946 0.149921C19.2431 0.50399 20.5002 2.04087 20.5004 3.82487C20.5004 5.89594 18.8214 7.57488 16.7504 7.57488Z" fill="#ED0000"/>
</svg>
